<svg xmlns="http://www.w3.org/2000/svg" viewBox="0 0 102.25 32.69"><defs><style>.a{fill:#2ab99d;}.b{fill:#2fa58b;}</style></defs><title>skilling-logo-green</title><path class="a" d="M83.4,13.78a4.51,4.51,0,0,0-3.13,1.29.11.11,0,0,1-.18-.08v-.77a.1.1,0,0,0-.1-.1h-2.6a.1.1,0,0,0-.1.1V26.11a.09.09,0,0,0,.1.1H80a.09.09,0,0,0,.1-.1V20.38a6.23,6.23,0,0,1,.58-3.17,2.14,2.14,0,0,1,2-.92,2,2,0,0,1,1.76.7,4.42,4.42,0,0,1,.5,2.47v6.65a.1.1,0,0,0,.1.1h2.6a.1.1,0,0,0,.11-.1V18.8a5.44,5.44,0,0,0-1-3.69A4.21,4.21,0,0,0,83.4,13.78Z"/><path class="a" d="M33.25,14l-2-.83c-1.47-.61-2.21-1.4-2.21-2.39A2.25,2.25,0,0,1,29.86,9,3.15,3.15,0,0,1,32,8.28a2.88,2.88,0,0,1,1.63.46,5.27,5.27,0,0,1,1.57,1.68.09.09,0,0,0,.12,0l2.1-1.61a.08.08,0,0,0,0-.12A6,6,0,0,0,32,5.39a6.31,6.31,0,0,0-4.34,1.55,4.88,4.88,0,0,0-1.75,3.82q0,3.39,4.16,5.15l2,.81a8.8,8.8,0,0,1,1.31.69,3.89,3.89,0,0,1,.9.78,2.69,2.69,0,0,1,.51.9,3.41,3.41,0,0,1,.17,1.09,3.29,3.29,0,0,1-1,2.42,3.49,3.49,0,0,1-5.13-.35,3.14,3.14,0,0,1-.72-1.91.1.1,0,0,0-.12-.08L25.77,22s-.07.11-.07.11a5.5,5.5,0,0,0,1.42,2.71,5,5,0,0,0,.74.57,6.92,6.92,0,0,0,8.28-.84A6.21,6.21,0,0,0,38,20a5.5,5.5,0,0,0-1.14-3.53A8.59,8.59,0,0,0,33.25,14Z"/><path class="a" d="M46,19.25a.09.09,0,0,1,0-.12l5.21-5a.09.09,0,0,0-.07-.16H47.69a.08.08,0,0,0-.07,0l-3.94,3.92a.09.09,0,0,1-.16-.06V5.62a.12.12,0,0,0-.2-.08L40.78,7.67a.11.11,0,0,0,0,.08v18.3a.09.09,0,0,0,.09.09h2.58a.1.1,0,0,0,.1-.09V21.57a.14.14,0,0,1,0-.07l.35-.34a.08.08,0,0,1,.13,0l3.88,4.94a.08.08,0,0,0,.07,0h3.35A.09.09,0,0,0,51.4,26Z"/><path class="a" d="M56.56,13.89,54,16.15a.11.11,0,0,0,0,.08v9.82a.09.09,0,0,0,.09.09h2.58a.09.09,0,0,0,.1-.09V14A.12.12,0,0,0,56.56,13.89Z"/><path class="a" d="M62.58,5.62a.12.12,0,0,0-.2-.08L59.85,7.8a.1.1,0,0,0,0,.09V26.05a.09.09,0,0,0,.09.09h2.59a.09.09,0,0,0,.09-.09Z"/><path class="a" d="M68.4,5.62a.11.11,0,0,0-.19-.08L65.67,7.8a.13.13,0,0,0,0,.09V26.05a.1.1,0,0,0,.1.09h2.58a.09.09,0,0,0,.09-.09Z"/><path class="a" d="M74,13.89l-2.54,2.26a.11.11,0,0,0,0,.08v9.82a.09.09,0,0,0,.09.09h2.58a.09.09,0,0,0,.1-.09V14A.12.12,0,0,0,74,13.89Z"/><path class="a" d="M102.16,13.93H99.57a.09.09,0,0,0-.09.09v1.25a.1.1,0,0,1-.16.07,4.82,4.82,0,0,0-3.61-1.52,5.09,5.09,0,0,0-4.16,1.95,6.87,6.87,0,0,0-1.46,4.45,6.58,6.58,0,0,0,1.57,4.5,5.28,5.28,0,0,0,7.66.24.09.09,0,0,1,.16.07v1.45c0,2.48-1,3.73-3,3.73a3,3,0,0,1-2.51-1.12,3.08,3.08,0,0,1-.52-1.29.09.09,0,0,0-.09-.08h-2.6a.09.09,0,0,0-.09.11,5.27,5.27,0,0,0,1.83,3.57,6,6,0,0,0,4,1.29,5.59,5.59,0,0,0,4.47-1.87A5,5,0,0,0,102,28.5a8.34,8.34,0,0,0,.15-1.14q.06-.64.06-1.5V14A.09.09,0,0,0,102.16,13.93Zm-3.42,8.93A3,3,0,0,1,96.23,24a3,3,0,0,1-2.49-1.14,4.2,4.2,0,0,1-.82-2.68,4.23,4.23,0,0,1,.82-2.71,3,3,0,0,1,2.49-1.17,3.07,3.07,0,0,1,2.42,1.07,4,4,0,0,1,.94,2.79A4.13,4.13,0,0,1,98.74,22.86Z"/><polygon class="b" points="6.21 0 12.51 10.89 18.8 0 6.21 0"/><polygon class="a" points="6.21 0 0 10.89 12.59 32.62 18.8 21.78 6.21 0"/><polygon class="b" points="6.3 21.72 12.59 32.62 0 32.62 6.3 21.72"/></svg>